<mxfile host="app.diagrams.net" modified="2024-03-05T14:38:40.740Z" agent="Mozilla/5.0 (Windows NT 10.0; Win64; x64) AppleWebKit/537.36 (KHTML, like Gecko) Chrome/121.0.0.0 Safari/537.36 OPR/107.0.0.0" version="24.0.1" etag="gfE7je4KMqnSvj7E8dUt" type="github">
  <diagram name="Страница — 1" id="J-FUJwieqvFvrQke8nMZ">
    <mxGraphModel>
      <root>
        <mxCell id="0" />
        <mxCell id="1" parent="0" />
      </root>
    </mxGraphModel>
  </diagram>
</mxfile>
